<svg xmlns="http://www.w3.org/2000/svg" xmlns:xlink="http://www.w3.org/1999/xlink" width="80" height="80" viewBox="0 0 80 80">
                  <defs>
                    <clipPath id="clip-path">
                      <rect id="Rectangle_252" data-name="Rectangle 252" width="80" height="80" transform="translate(137 455)" fill="#fff" stroke="#707070" stroke-width="1"/>
                    </clipPath>
                  </defs>
                  <g id="Mask_Group_1" data-name="Mask Group 1" transform="translate(-137 -455)" clip-path="url(#clip-path)">
                    <g id="svg" transform="translate(149.927 454.184)">
                      <g id="off">
                        <path id="Path_7" data-name="Path 7" d="M27.073,2.694A25.114,25.114,0,0,0,1.966,27.8c0,11.462,14.313,23.239,15.709,31.909h18.8C37.867,51.059,52.18,39.282,52.18,27.8A25.126,25.126,0,0,0,27.073,2.694Z" fill="#FFDB55"/>
                      </g>
                      <g id="outline">
                        <path id="Path_9" data-name="Path 9" d="M33.128,73.826H21a3.142,3.142,0,0,1-3.146-3.146V59.71H36.294V70.68A3.159,3.159,0,0,1,33.128,73.826Z" fill="#f1f2f2" stroke="#38434a" stroke-miterlimit="10" stroke-width="3.756"/>
                        <path id="Path_10" data-name="Path 10" d="M29.727,78.938H24.4a1.38,1.38,0,0,1-1.376-1.376V73.826H31.1v3.736A1.368,1.368,0,0,1,29.727,78.938Z" fill="#f1f2f2" stroke="#38434a" stroke-miterlimit="10" stroke-width="3.756"/>
                        <line id="Line_2" data-name="Line 2" x1="18.442" transform="translate(17.852 66.768)" fill="none" stroke="#38434a" stroke-miterlimit="10" stroke-width="3.756"/>
                        <path id="Path_11" data-name="Path 11" d="M27.073,2.694A25.114,25.114,0,0,0,1.966,27.8c0,11.462,14.313,23.239,15.709,31.909h18.8C37.867,51.059,52.18,39.282,52.18,27.8A25.126,25.126,0,0,0,27.073,2.694Z" fill="#9400D3" stroke="#38434a" stroke-miterlimit="10" stroke-width="3.756"/>
                      </g>
                      <g id="highlight">
                        <path id="Path_12" data-name="Path 12" d="M40.717,17.6A24.992,24.992,0,0,0,31.5,10.165" fill="#ffdb55" stroke="#fff" stroke-linecap="round" stroke-miterlimit="10" stroke-width="4.131"/>
                        <path id="Path_13" data-name="Path 13" d="M44.237,23.868c-.157-.433-.354-.865-.531-1.278" fill="#ffdb55" stroke="#fff" stroke-linecap="round" stroke-miterlimit="10" stroke-width="4.131"/>
                      </g>
                    </g>
                  </g>
                </svg>